<svg width="24" height="24" viewBox="0 0 24 24" fill="none" xmlns="http://www.w3.org/2000/svg">
<path d="M11.9999 15.5564C12.9429 15.5564 13.8473 15.1818 14.514 14.515C15.1808 13.8482 15.5554 12.9439 15.5554 12.0009C15.5554 11.0579 15.1808 10.1535 14.514 9.48671C13.8473 8.81991 12.9429 8.44531 11.9999 8.44531C11.0569 8.44531 10.1525 8.81991 9.48573 9.48671C8.81894 10.1535 8.44434 11.0579 8.44434 12.0009C8.44434 12.9439 8.81894 13.8482 9.48573 14.515C10.1525 15.1818 11.0569 15.5564 11.9999 15.5564Z" stroke="#656870" stroke-width="1.5" stroke-linecap="round" stroke-linejoin="round"/>
<path d="M4 15.5556V8.44444C4 7.2657 4.46825 6.13524 5.30175 5.30175C6.13524 4.46825 7.2657 4 8.44444 4H15.5556C16.7343 4 17.8648 4.46825 18.6983 5.30175C19.5317 6.13524 20 7.2657 20 8.44444V15.5556C20 16.7343 19.5317 17.8648 18.6983 18.6983C17.8648 19.5317 16.7343 20 15.5556 20H8.44444C7.2657 20 6.13524 19.5317 5.30175 18.6983C4.46825 17.8648 4 16.7343 4 15.5556Z" stroke="#656870" stroke-width="1.5"/>
<path d="M16.8887 7.11915L16.8976 7.10938" stroke="#656870" stroke-width="1.5" stroke-linecap="round" stroke-linejoin="round"/>
</svg>
